# xmcd
#
# Track frame offsets:
# 150
# 8777
# 23359
# 38180
# 49723
# 68266
# 81999
# 91924
# 104877
# 117539
# 131815
# 145468
#
# Disc length: 2149 seconds
#
#
# Revision: 0
# Processed by: cddbd v1.5.1PL0 Copyright (c) Steve Scherf et al.
# Submitted via: HACP 1.20
#
DISCID=9f08630c
DTITLE=Lou Rawls - Black and Blue
DYEAR=1900
DGENRE=
TTITLE0=Roll 'em Pete
TTITLE1=I'd Rather Drink Muddy Water
TTITLE2=How Long, How Long Blues
TTITLE3=Everyday I Have the Blues
TTITLE4=St. James Infirmary
TTITLE5=(What Did I Do To Be So) Black and Blue
TTITLE6=Kansas City
TTITLE7=Goin' To Chicago Blues
TTITLE8=Trouble In Mind
TTITLE9=World of Trouble
TTITLE10=Six Cold Feet of Ground
TTITLE11=Strange Fruit
EXTD=
EXTT0=
EXTT1=
EXTT2=
EXTT3=
EXTT4=
EXTT5=
EXTT6=
EXTT7=
EXTT8=
EXTT9=
EXTT10=
EXTT11=
PLAYORDER=
